<svg width="64" height="64" viewBox="0 0 64 64" fill="none" xmlns="http://www.w3.org/2000/svg">
<rect width="64" height="64" rx="32" fill="black"/>
<g clip-path="url(#clip0_61_7)">
<path fill-rule="evenodd" clip-rule="evenodd" d="M32 19.8658L32.5352 20.1441L42.2018 25.1708L42.8267 25.4957V26.2V37.8V38.5042L42.2018 38.8291L32.5352 43.8558L32 44.134L31.4648 43.8558L21.7982 38.8291L21.1733 38.5042V37.8V26.2V25.4957L21.7982 25.1708L31.4648 20.1441L32 19.8658ZM23.4933 37.0958V28.0414L30.84 31.7147V40.916L23.4933 37.0958ZM33.16 40.916L40.5067 37.0958V28.0414L33.16 31.7147V40.916ZM32 22.4808L39.0785 26.1616L32 29.7009L24.9215 26.1616L32 22.4808Z" fill="#EDEDED"/>
</g>
<defs>
<clipPath id="clip0_61_7">
<rect width="24.7467" height="24.7467" fill="white" transform="translate(19.6267 19.6267)"/>
</clipPath>
</defs>
</svg>
