<svg width="122" height="37" viewBox="0 0 122 37" fill="none" xmlns="http://www.w3.org/2000/svg">
<rect width="37" height="37" rx="12" fill="black"/>
<g clip-path="url(#clip0_384_4)">
<path fill-rule="evenodd" clip-rule="evenodd" d="M18.4994 11.4844L18.8088 11.6453L24.3973 14.5513L24.7586 14.7391V15.1463V21.8525V22.2597L24.3973 22.4475L18.8088 25.3536L18.4994 25.5144L18.19 25.3536L12.6015 22.4475L12.2402 22.2597V21.8525V15.1463V14.7391L12.6015 14.5513L18.19 11.6453L18.4994 11.4844ZM13.5815 21.4454V16.2109L17.8288 18.3345V23.654L13.5815 21.4454ZM19.17 23.654L23.4173 21.4454V16.2108L19.17 18.3345V23.654ZM18.4994 12.9961L22.5916 15.1241L18.4994 17.1703L14.4071 15.1241L18.4994 12.9961Z" fill="#EDEDED"/>
</g>
<path d="M43.864 25V13.336H46.664V25H43.864ZM52.2993 25L47.2112 13.336H50.2832L53.5953 21.544L54.0433 22.776H54.1553L54.6033 21.56L57.9313 13.336H61.0033L55.8993 25H52.2993ZM58.6881 25L63.6801 13.336H67.2961L72.3041 25H69.2801L66.0961 16.872L65.5361 15.368H65.4401L64.8641 16.888L61.6961 25H58.6881ZM62.4161 22.664L63.1841 20.584H67.7921L68.5441 22.664H62.4161ZM72.8571 25V13.336H76.2491L82.0731 21.384H82.2011L82.1051 17.848V13.336H84.8731V25H81.5291L75.7051 17.016H75.5771L75.6731 20.424V25H72.8571ZM86.2871 25V13.336H92.9751C94.3085 13.336 95.2898 13.5973 95.9191 14.12C96.5591 14.632 96.8791 15.3573 96.8791 16.296C96.8791 16.7333 96.7991 17.128 96.6391 17.48C96.4898 17.8213 96.2658 18.1147 95.9671 18.36C95.6791 18.5947 95.3325 18.7707 94.9271 18.888V18.984C95.4071 19.08 95.8178 19.2507 96.1591 19.496C96.5005 19.7413 96.7618 20.0507 96.9431 20.424C97.1351 20.7973 97.2311 21.2347 97.2311 21.736C97.2311 22.4507 97.0551 23.0533 96.7031 23.544C96.3618 24.024 95.8605 24.3867 95.1991 24.632C94.5485 24.8773 93.7591 25 92.8311 25H86.2871ZM89.0711 23.064H92.3511C93.0978 23.064 93.6311 22.92 93.9511 22.632C94.2711 22.3333 94.4311 21.9493 94.4311 21.48C94.4311 20.968 94.2605 20.5893 93.9191 20.344C93.5885 20.088 93.0925 19.96 92.4311 19.96H88.8471V18.104H92.3191C92.7565 18.104 93.1031 18.0453 93.3591 17.928C93.6258 17.8107 93.8178 17.6453 93.9351 17.432C94.0631 17.2187 94.1271 16.968 94.1271 16.68C94.1271 16.1893 93.9511 15.832 93.5991 15.608C93.2578 15.384 92.8045 15.272 92.2391 15.272H89.0711V23.064ZM97.1188 25L102.111 13.336H105.727L110.735 25H107.711L104.527 16.872L103.967 15.368H103.871L103.295 16.888L100.127 25H97.1188ZM100.847 22.664L101.615 20.584H106.223L106.975 22.664H100.847ZM116.14 25.144C114.85 25.144 113.788 24.984 112.956 24.664C112.124 24.3333 111.506 23.8747 111.1 23.288C110.695 22.7013 110.487 22.0347 110.476 21.288H113.388C113.41 21.6933 113.527 22.04 113.74 22.328C113.954 22.616 114.268 22.84 114.684 23C115.111 23.1493 115.628 23.224 116.236 23.224C116.791 23.224 117.25 23.1707 117.612 23.064C117.986 22.9467 118.263 22.776 118.444 22.552C118.636 22.328 118.732 22.0667 118.732 21.768C118.732 21.48 118.674 21.2507 118.556 21.08C118.45 20.8987 118.279 20.76 118.044 20.664C117.81 20.5573 117.506 20.472 117.132 20.408C116.77 20.344 116.327 20.28 115.804 20.216C114.983 20.12 114.258 19.992 113.628 19.832C112.999 19.672 112.471 19.464 112.044 19.208C111.628 18.952 111.314 18.6267 111.1 18.232C110.887 17.8373 110.78 17.352 110.78 16.776C110.78 16.008 110.994 15.3627 111.42 14.84C111.847 14.3067 112.45 13.9013 113.228 13.624C114.018 13.336 114.956 13.192 116.044 13.192C117.058 13.192 117.938 13.3307 118.684 13.608C119.442 13.8853 120.034 14.2853 120.46 14.808C120.887 15.3307 121.127 15.9653 121.18 16.712H118.364C118.322 16.328 118.199 16.0187 117.996 15.784C117.794 15.5493 117.516 15.3787 117.164 15.272C116.812 15.1547 116.402 15.096 115.932 15.096C115.452 15.096 115.042 15.1547 114.7 15.272C114.359 15.3787 114.098 15.5333 113.916 15.736C113.735 15.9387 113.644 16.184 113.644 16.472C113.644 16.8027 113.735 17.0587 113.916 17.24C114.098 17.4107 114.402 17.544 114.828 17.64C115.255 17.7253 115.831 17.8107 116.556 17.896C117.399 18.0027 118.135 18.1307 118.764 18.28C119.394 18.4293 119.916 18.6373 120.332 18.904C120.759 19.16 121.079 19.5013 121.292 19.928C121.506 20.3547 121.612 20.8933 121.612 21.544C121.612 22.2907 121.399 22.936 120.972 23.48C120.556 24.0133 119.943 24.424 119.132 24.712C118.322 25 117.324 25.144 116.14 25.144Z" fill="black"/>
<defs>
<clipPath id="clip0_384_4">
<rect width="14.3067" height="14.3067" fill="white" transform="translate(11.3472 11.3472)"/>
</clipPath>
</defs>
</svg>
