<svg width="106" height="17" viewBox="0 0 106 17" fill="none" xmlns="http://www.w3.org/2000/svg">
<path d="M1.15918 15.6922V0.439284H4.91614V15.6922H1.15918ZM12.4774 15.6922L5.65043 0.439284H9.77235L14.2164 11.1728L14.8175 12.7839H14.9678L15.5689 11.1937L20.0343 0.439284H24.1562L17.3078 15.6922H12.4774ZM21.0497 15.6922L27.7479 0.439284H32.5997L39.3193 15.6922H35.2618L30.9896 5.06329L30.2382 3.09652H30.1094L29.3365 5.08421L25.0858 15.6922H21.0497ZM26.0519 12.6374L27.0824 9.91744H33.2652L34.2743 12.6374H26.0519ZM40.0613 15.6922V0.439284H44.6126L52.4271 10.9636H52.5988L52.47 6.33959V0.439284H56.1841V15.6922H51.6972L43.8827 5.25159H43.7109L43.8397 9.70821V15.6922H40.0613ZM58.0813 15.6922V0.439284H67.0551C68.8442 0.439284 70.1609 0.781029 71.0053 1.46452C71.864 2.13405 72.2934 3.08256 72.2934 4.31005C72.2934 4.88195 72.186 5.39805 71.9713 5.85836C71.771 6.30472 71.4705 6.68832 71.0697 7.00913C70.6832 7.31601 70.2182 7.54616 69.6742 7.69959V7.82513C70.3183 7.95067 70.8693 8.17385 71.3273 8.49467C71.7854 8.81549 72.136 9.22001 72.3792 9.70821C72.6369 10.1964 72.7657 10.7683 72.7657 11.4239C72.7657 12.3585 72.5295 13.1465 72.0572 13.7882C71.5993 14.4159 70.9266 14.8902 70.0392 15.211C69.1662 15.5318 68.107 15.6922 66.8619 15.6922H58.0813ZM61.8168 13.1605H66.2178C67.2197 13.1605 67.9353 12.9722 68.3647 12.5956C68.794 12.205 69.0087 11.7029 69.0087 11.0891C69.0087 10.4196 68.7798 9.92441 68.3217 9.60359C67.8781 9.26882 67.2126 9.10144 66.3252 9.10144H61.5163V6.67436H66.1749C66.7618 6.67436 67.2268 6.59764 67.5703 6.44421C67.9282 6.29078 68.1858 6.07456 68.3432 5.79559C68.5149 5.51662 68.6008 5.18882 68.6008 4.81221C68.6008 4.17056 68.3647 3.70329 67.8924 3.41036C67.4344 3.11744 66.8262 2.97098 66.0675 2.97098H61.8168V13.1605ZM72.615 15.6922L79.3131 0.439284H84.165L90.8846 15.6922H86.827L82.5548 5.06329L81.8034 3.09652H81.6746L80.9018 5.08421L76.651 15.6922H72.615ZM77.6171 12.6374L78.6476 9.91744H84.8305L85.8395 12.6374H77.6171ZM98.1375 15.8805C96.4057 15.8805 94.9817 15.6713 93.8653 15.2528C92.749 14.8204 91.9188 14.2207 91.375 13.4534C90.831 12.6863 90.5519 11.8145 90.5377 10.8381H94.445C94.4735 11.3681 94.6309 11.8214 94.9173 12.1981C95.2035 12.5747 95.6257 12.8676 96.1839 13.0768C96.7563 13.2721 97.4505 13.3697 98.2663 13.3697C99.0105 13.3697 99.6259 13.3 100.113 13.1605C100.613 13.0071 100.986 12.7839 101.229 12.491C101.487 12.1981 101.615 11.8563 101.615 11.4657C101.615 11.0891 101.537 10.7892 101.379 10.5661C101.236 10.3289 101.007 10.1476 100.692 10.0221C100.377 9.88256 99.9694 9.77098 99.4686 9.68729C98.9819 9.60359 98.3879 9.5199 97.6867 9.43621C96.5845 9.31067 95.6114 9.14329 94.767 8.93405C93.9225 8.72482 93.214 8.45282 92.6416 8.11805C92.0834 7.78329 91.6612 7.35785 91.375 6.84175C91.0887 6.32564 90.9456 5.69098 90.9456 4.93775C90.9456 3.93344 91.2318 3.08955 91.8044 2.40605C92.3768 1.70862 93.1854 1.17857 94.2303 0.815901C95.2893 0.439284 96.5488 0.250977 98.0087 0.250977C99.3683 0.250977 100.549 0.43231 101.551 0.794978C102.567 1.15764 103.361 1.68072 103.934 2.36421C104.506 3.0477 104.828 3.87764 104.9 4.85405H101.122C101.064 4.3519 100.9 3.94739 100.628 3.64052C100.356 3.33364 99.9838 3.11047 99.5115 2.97098C99.0392 2.81755 98.4881 2.74082 97.8584 2.74082C97.2144 2.74082 96.6633 2.81755 96.2054 2.97098C95.7473 3.11047 95.3967 3.31272 95.1534 3.57775C94.91 3.84278 94.7885 4.16359 94.7885 4.54021C94.7885 4.97262 94.91 5.30739 95.1534 5.54452C95.3967 5.7677 95.8046 5.94205 96.3771 6.06759C96.9495 6.17918 97.7224 6.29078 98.6957 6.40236C99.8263 6.54185 100.814 6.70924 101.658 6.90452C102.503 7.09979 103.204 7.37179 103.762 7.72052C104.335 8.05529 104.764 8.50164 105.05 9.05959C105.337 9.61755 105.48 10.3219 105.48 11.1728C105.48 12.1492 105.193 12.9931 104.621 13.7045C104.063 14.4019 103.24 14.939 102.152 15.3156C101.064 15.6922 99.7262 15.8805 98.1375 15.8805Z" fill="black"/>
</svg>
