<svg width="37" height="37" viewBox="0 0 37 37" fill="none" xmlns="http://www.w3.org/2000/svg">
<rect width="37" height="37" rx="12" fill="black"/>
<g clip-path="url(#clip0_384_4)">
<path fill-rule="evenodd" clip-rule="evenodd" d="M18.4994 11.4844L18.8088 11.6453L24.3973 14.5513L24.7586 14.7391V15.1463V21.8525V22.2597L24.3973 22.4475L18.8088 25.3536L18.4994 25.5144L18.19 25.3536L12.6015 22.4475L12.2402 22.2597V21.8525V15.1463V14.7391L12.6015 14.5513L18.19 11.6453L18.4994 11.4844ZM13.5815 21.4454V16.2109L17.8288 18.3345V23.654L13.5815 21.4454ZM19.17 23.654L23.4173 21.4454V16.2108L19.17 18.3345V23.654ZM18.4994 12.9961L22.5916 15.1241L18.4994 17.1703L14.4071 15.1241L18.4994 12.9961Z" fill="#EDEDED"/>
</g>
<defs>
<clipPath id="clip0_384_4">
<rect width="14.3067" height="14.3067" fill="white" transform="translate(11.3472 11.3472)"/>
</clipPath>
</defs>
</svg>