<svg width="56" height="56" viewBox="0 0 56 56" fill="none" xmlns="http://www.w3.org/2000/svg">
<g clip-path="url(#clip0_322_152)">
<mask id="mask0_322_152" style="mask-type:luminance" maskUnits="userSpaceOnUse" x="0" y="0" width="56" height="56">
<path d="M56 0H0V56H56V0Z" fill="white"/>
</mask>
<g mask="url(#mask0_322_152)">
<mask id="mask1_322_152" style="mask-type:luminance" maskUnits="userSpaceOnUse" x="0" y="0" width="56" height="56">
<path d="M0 0H56V56H0V0Z" fill="white"/>
</mask>
<g mask="url(#mask1_322_152)">
<path d="M35.6523 44.2769L3.79443 44.2819M41.132 44.2769L52.0929 44.2792" stroke="black" stroke-width="1.56279" stroke-linecap="round" stroke-linejoin="round"/>
<path d="M41.0555 44.2792C41.0555 45.7118 39.8834 46.8839 38.4508 46.8839C37.0183 46.8839 35.8462 45.7118 35.8462 44.2792C35.8462 42.8467 37.0183 41.6746 38.4508 41.6746C39.8834 41.6746 41.0555 42.8467 41.0555 44.2792Z" stroke="black" stroke-width="1.56279" stroke-linecap="round" stroke-linejoin="round"/>
<path d="M46.1962 19.3858L43.7681 10.6365L38.3031 17.8805L29.2322 17.4764L34.4276 24.9238L31.242 33.4245L39.9256 30.785L47.041 36.4375L47.2075 27.3611L54.7792 22.3484L46.1962 19.3858Z" stroke="black" stroke-width="1.56279" stroke-linejoin="round"/>
</g>
</g>
</g>
<defs>
<clipPath id="clip0_322_152">
<rect width="56" height="56" fill="white"/>
</clipPath>
</defs>
</svg>
