<svg width="28" height="28" viewBox="0 0 28 28" fill="none" xmlns="http://www.w3.org/2000/svg">
<g clip-path="url(#clip0_322_209)">
<path d="M14 28C21.732 28 28 21.732 28 14C28 6.26802 21.732 0 14 0C6.26802 0 0 6.26802 0 14C0 21.732 6.26802 28 14 28Z" fill="#34AADF"/>
<path d="M5.82678 13.878C5.82678 13.878 12.8268 11.0052 15.2545 9.99367C16.1852 9.58907 19.3412 8.29423 19.3412 8.29423C19.3412 8.29423 20.7979 7.72779 20.6765 9.10349C20.636 9.66999 20.3123 11.6526 19.9886 13.7971C19.5031 16.8318 18.977 20.1497 18.977 20.1497C18.977 20.1497 18.8961 21.0804 18.2083 21.2422C17.5204 21.4041 16.3874 20.6758 16.1852 20.5139C16.0233 20.3925 13.1505 18.5717 12.0984 17.6815C11.8152 17.4388 11.4915 16.9532 12.1389 16.3867C13.5956 15.0515 15.3354 13.3925 16.3874 12.3405C16.873 11.8549 17.3585 10.722 15.3354 12.0977C12.4626 14.0804 9.63025 15.9416 9.63025 15.9416C9.63025 15.9416 8.98283 16.3462 7.76898 15.9821C6.55507 15.618 5.13888 15.1324 5.13888 15.1324C5.13888 15.1324 4.16784 14.5255 5.82678 13.878Z" fill="white"/>
</g>
<defs>
<clipPath id="clip0_322_209">
<rect width="28" height="28" fill="white"/>
</clipPath>
</defs>
</svg>
