<svg width="56" height="56" viewBox="0 0 56 56" fill="none" xmlns="http://www.w3.org/2000/svg">
<mask id="mask0_322_192" style="mask-type:luminance" maskUnits="userSpaceOnUse" x="0" y="0" width="56" height="56">
<path d="M56 0H0V56H56V0Z" fill="white"/>
</mask>
<g mask="url(#mask0_322_192)">
<mask id="mask1_322_192" style="mask-type:luminance" maskUnits="userSpaceOnUse" x="0" y="0" width="56" height="56">
<path d="M0 0H56V56H0V0Z" fill="white"/>
</mask>
<g mask="url(#mask1_322_192)">
<path d="M45.3861 16.4744L42.1303 13.2186M43.7582 14.8465L41.2187 17.386M30.9694 12.2189V7.81392H25.0047M25.0047 7.81392V12.2011M25.0047 7.81392H20.8373V4.55811H35.1629V7.81392H30.969M40.3722 30.9562H43.2373M28.0001 42.9767V46.2325M15.4978 30.9302H12.6327M28.0001 18.493V15.6279M17.112 41.7527C23.0845 47.7259 32.7816 47.7259 38.754 41.7527C44.7371 35.7794 44.7265 26.081 38.754 20.1077C32.7816 14.1345 23.0845 14.1345 17.112 20.1077C11.1395 26.081 11.1395 35.7794 17.112 41.7527ZM14.6382 44.2139C22.0094 51.5851 33.9778 51.5851 41.3489 44.2139C48.7331 36.8428 48.7201 24.8744 41.3489 17.5032C33.9778 10.1321 22.0094 10.1321 14.6382 17.5032C7.26707 24.8744 7.26707 36.8428 14.6382 44.2139Z" stroke="black" stroke-width="1.56279" stroke-linecap="round" stroke-linejoin="round"/>
<path d="M23.2038 25.1796L26.749 29.4301M26.749 29.4301C27.5775 28.739 28.8094 28.8505 29.5004 29.6789C30.1915 30.5074 30.08 31.7393 29.2516 32.4304C28.4231 33.1214 27.1912 33.01 26.5001 32.1815C25.8091 31.353 25.9205 30.1211 26.749 29.4301Z" stroke="black" stroke-width="1.56279" stroke-linecap="round"/>
</g>
</g>
</svg>
